
<svg viewBox="0 0 800 1100" xmlns="http://www.w3.org/2000/svg" preserveAspectRatio="xMidYMid slice" style="width:100%;height:100%;display:block;">
  <defs>
    <linearGradient id="sky" x1="0" y1="0" x2="0" y2="1">
      <stop offset="0" stop-color="#F0F8EE"></stop>
      <stop offset="0.55" stop-color="#DCEFD8"></stop>
      <stop offset="1" stop-color="#A5D6A7"></stop>
    </linearGradient>
    <linearGradient id="hillBack" x1="0" y1="0" x2="0" y2="1">
      <stop offset="0" stop-color="#A5D6A7"></stop>
      <stop offset="1" stop-color="#7FB785"></stop>
    </linearGradient>
    <linearGradient id="hillMid" x1="0" y1="0" x2="0" y2="1">
      <stop offset="0" stop-color="#7FB785"></stop>
      <stop offset="1" stop-color="#5BA362"></stop>
    </linearGradient>
    <linearGradient id="hillFront" x1="0" y1="0" x2="0" y2="1">
      <stop offset="0" stop-color="#5BA362"></stop>
      <stop offset="1" stop-color="#2E7D32"></stop>
    </linearGradient>
    <radialGradient id="sun" cx="0.5" cy="0.5" r="0.5">
      <stop offset="0" stop-color="#FFEBB5" stop-opacity="0.9"></stop>
      <stop offset="0.5" stop-color="#FFEBB5" stop-opacity="0.3"></stop>
      <stop offset="1" stop-color="#FFEBB5" stop-opacity="0"></stop>
    </radialGradient>
    <pattern id="grass" x="0" y="0" width="40" height="40" patternUnits="userSpaceOnUse">
      <path d="M0 40 Q5 35 8 38 Q12 32 16 36 Q20 28 24 35 Q28 30 32 36 Q36 32 40 38" stroke="#1B5E20" stroke-width="1" fill="none" opacity="0.25"></path>
    </pattern>
  </defs>

  
  <rect width="800" height="1100" fill="url(#sky)"></rect>

  
  <circle cx="640" cy="220" r="280" fill="url(#sun)"></circle>
  <circle cx="640" cy="220" r="58" fill="#FFEBB5" opacity="0.85"></circle>

  
  <g fill="#FFFFFF" opacity="0.55">
    <ellipse cx="180" cy="180" rx="80" ry="14"></ellipse>
    <ellipse cx="220" cy="165" rx="55" ry="12"></ellipse>
    <ellipse cx="520" cy="120" rx="65" ry="11"></ellipse>
  </g>

  
  <path d="M0 560 Q120 480 250 510 Q380 540 500 470 Q630 410 800 460 L800 600 L0 600 Z" fill="url(#hillBack)" opacity="0.55"></path>
  
  <g fill="#5BA362" opacity="0.55">
    <path d="M120 510 Q115 475 130 470 Q150 472 145 510 Z"></path>
    <path d="M280 500 Q272 460 295 458 Q318 462 310 500 Z"></path>
    <path d="M450 480 Q442 445 465 442 Q485 447 478 480 Z"></path>
    <path d="M620 460 Q614 425 635 423 Q655 428 648 460 Z"></path>
    <path d="M720 470 Q714 438 733 436 Q752 440 745 470 Z"></path>
  </g>

  
  <path d="M0 660 Q140 590 320 630 Q480 670 640 600 Q740 560 800 580 L800 720 L0 720 Z" fill="url(#hillMid)" opacity="0.85"></path>

  
  <g>
    
    <ellipse cx="90" cy="615" rx="32" ry="38" fill="#2E7D32"></ellipse>
    <rect x="86" y="640" width="8" height="20" fill="#5A3A24"></rect>
    
    <ellipse cx="380" cy="615" rx="40" ry="48" fill="#1B5E20"></ellipse>
    <rect x="376" y="650" width="9" height="22" fill="#5A3A24"></rect>
    
    <ellipse cx="700" cy="595" rx="34" ry="42" fill="#2E7D32"></ellipse>
    <rect x="696" y="625" width="8" height="20" fill="#5A3A24"></rect>
  </g>

  
  <path d="M0 760 Q160 720 360 750 Q540 775 720 730 Q780 715 800 720 L800 1100 L0 1100 Z" fill="url(#hillFront)"></path>

  
  <path d="M0 760 Q160 720 360 750 Q540 775 720 730 Q780 715 800 720 L800 1100 L0 1100 Z" fill="url(#grass)"></path>

  
  <g stroke="#FAFFFA" stroke-width="3" fill="none" opacity="0.7">
    <line x1="50" y1="690" x2="50" y2="720"></line>
    <line x1="80" y1="690" x2="80" y2="720"></line>
    <line x1="110" y1="690" x2="110" y2="720"></line>
    <line x1="140" y1="690" x2="140" y2="720"></line>
    <line x1="170" y1="690" x2="170" y2="720"></line>
    <line x1="0" y1="700" x2="190" y2="700"></line>
    <line x1="0" y1="713" x2="190" y2="713"></line>
  </g>

  
  <circle cx="180" cy="940" r="18" fill="#E8B84A"></circle>
  <path d="M165 935 Q180 930 195 935" stroke="#C97B5A" stroke-width="2" fill="none" opacity="0.7"></path>
  <ellipse cx="180" cy="960" rx="14" ry="3" fill="#0F3D14" opacity="0.25"></ellipse>

  
  <g>
    <circle cx="100" cy="980" r="4" fill="#FAFFFA" opacity="0.9"></circle>
    <circle cx="105" cy="985" r="3" fill="#FAFFFA" opacity="0.9"></circle>
    <circle cx="380" cy="1020" r="5" fill="#FAFFFA" opacity="0.9"></circle>
    <circle cx="385" cy="1015" r="3" fill="#FAFFFA" opacity="0.9"></circle>
    <circle cx="580" cy="990" r="4" fill="#FFEBB5" opacity="0.95"></circle>
    <circle cx="585" cy="995" r="3" fill="#FFEBB5" opacity="0.95"></circle>
    <circle cx="720" cy="1040" r="4" fill="#FAFFFA" opacity="0.9"></circle>
    <circle cx="240" cy="1050" r="5" fill="#FFEBB5" opacity="0.95"></circle>
  </g>

  
  <g stroke="#1B5E20" stroke-width="2" fill="none" opacity="0.55" stroke-linecap="round">
    <path d="M20 1080 Q22 1050 28 1030"></path>
    <path d="M30 1090 Q34 1060 40 1040"></path>
    <path d="M55 1085 Q58 1055 65 1035"></path>
    <path d="M260 1090 Q263 1055 270 1035"></path>
    <path d="M280 1080 Q283 1050 290 1030"></path>
    <path d="M510 1090 Q515 1055 525 1035"></path>
    <path d="M650 1085 Q655 1055 665 1035"></path>
    <path d="M775 1090 Q778 1060 785 1040"></path>
  </g>

  
  <g id="dog" transform="translate(360 820)">
    
    <ellipse cx="60" cy="125" rx="75" ry="10" fill="#0F3D14" opacity="0.22"></ellipse>

    
    
    <path d="M105 95 Q120 105 122 125 L115 130 Q108 122 102 110 Z" fill="#C97B5A"></path>
    <path d="M85 95 Q72 110 65 130 L75 132 Q88 120 95 105 Z" fill="#A8633E"></path>

    
    <path d="M30 70 Q50 55 95 55 Q130 55 140 75 Q142 95 130 105 Q90 115 50 105 Q22 95 30 70 Z" fill="#E8B84A"></path>

    
    <path d="M30 75 Q40 65 60 65 Q55 85 45 95 Q30 90 30 75 Z" fill="#FFEBB5" opacity="0.5"></path>

    
    <path d="M40 90 Q30 105 20 128 L28 132 Q38 118 48 100 Z" fill="#C97B5A"></path>
    <path d="M55 95 Q48 110 42 128 L52 130 Q58 115 65 100 Z" fill="#A8633E"></path>

    
    <path d="M0 50 Q-5 35 10 28 Q30 22 40 35 Q42 55 35 70 Q15 75 5 65 Q-3 60 0 50 Z" fill="#E8B84A"></path>

    
    <ellipse cx="-2" cy="58" rx="14" ry="9" fill="#FFEBB5"></ellipse>
    
    <ellipse cx="-12" cy="55" rx="3.5" ry="3" fill="#1B1B1B"></ellipse>
    
    <path d="M-12 60 Q-8 64 -2 63" stroke="#1B1B1B" stroke-width="1.3" fill="none" stroke-linecap="round"></path>

    
    <ellipse cx="12" cy="46" rx="2.5" ry="3" fill="#1B1B1B"></ellipse>
    <circle cx="13" cy="44" r="0.8" fill="#FAFFFA"></circle>

    
    <path d="M22 30 Q42 18 50 30 Q48 50 35 52 Q25 48 22 30 Z" fill="#A8633E"></path>

    
    <path d="M22 65 Q35 72 45 68" stroke="#2E7D32" stroke-width="4" fill="none" stroke-linecap="round"></path>
    <circle cx="34" cy="71" r="2.5" fill="#E8B84A"></circle>

    
    <path d="M138 78 Q160 60 170 40 Q175 30 168 28 Q160 30 155 42 Q145 60 132 75 Z" fill="#E8B84A"></path>
    <path d="M156 38 Q166 30 168 32 Q165 40 158 45 Z" fill="#FFEBB5" opacity="0.6"></path>

    
    <g stroke="#FAFFFA" stroke-width="2.5" fill="none" stroke-linecap="round" opacity="0.6">
      <path d="M-10 70 L-30 70"></path>
      <path d="M-8 85 L-26 85"></path>
      <path d="M-12 100 L-28 100"></path>
    </g>
  </g>

  
  <g fill="#1B5E20" opacity="0.32">
    <g transform="translate(280 940) rotate(-12)">
      <ellipse cx="0" cy="-6" rx="2.2" ry="3"></ellipse>
      <ellipse cx="6" cy="-4" rx="2.2" ry="3"></ellipse>
      <ellipse cx="-4" cy="0" rx="1.8" ry="2.5"></ellipse>
      <ellipse cx="10" cy="1" rx="1.8" ry="2.5"></ellipse>
      <ellipse cx="3" cy="4" rx="4" ry="3.5"></ellipse>
    </g>
    <g transform="translate(220 980) rotate(-8)" opacity="0.7">
      <ellipse cx="0" cy="-6" rx="2.2" ry="3"></ellipse>
      <ellipse cx="6" cy="-4" rx="2.2" ry="3"></ellipse>
      <ellipse cx="-4" cy="0" rx="1.8" ry="2.5"></ellipse>
      <ellipse cx="10" cy="1" rx="1.8" ry="2.5"></ellipse>
      <ellipse cx="3" cy="4" rx="4" ry="3.5"></ellipse>
    </g>
    <g transform="translate(160 1010) rotate(-5)" opacity="0.45">
      <ellipse cx="0" cy="-6" rx="2.2" ry="3"></ellipse>
      <ellipse cx="6" cy="-4" rx="2.2" ry="3"></ellipse>
      <ellipse cx="-4" cy="0" rx="1.8" ry="2.5"></ellipse>
      <ellipse cx="10" cy="1" rx="1.8" ry="2.5"></ellipse>
      <ellipse cx="3" cy="4" rx="4" ry="3.5"></ellipse>
    </g>
  </g>

  
  <g transform="translate(280 760)">
    <path d="M0 0 Q-8 -6 -10 0 Q-8 6 0 4 Z" fill="#FAFFFA" opacity="0.9"></path>
    <path d="M0 0 Q8 -6 10 0 Q8 6 0 4 Z" fill="#FAFFFA" opacity="0.9"></path>
    <ellipse cx="0" cy="2" rx="1.2" ry="3" fill="#1B1B1B"></ellipse>
  </g>
</svg>